<svg width="20" height="21" viewBox="0 0 20 21" fill="none" xmlns="http://www.w3.org/2000/svg">
<path d="M8.69501 7.31566V8.69266H7.68701V10.3757H8.69501V15.3787H10.767V10.3757H12.157C12.157 10.3757 12.288 9.56866 12.351 8.68566H10.775V7.53566C10.775 7.36266 11.001 7.13166 11.225 7.13166H12.353V5.37866H10.818C8.64401 5.37866 8.69501 7.06366 8.69501 7.31566Z" fill="#F3C653"/>
<path d="M4 2.37866C3.46957 2.37866 2.96086 2.58938 2.58579 2.96445C2.21071 3.33952 2 3.84823 2 4.37866V16.3787C2 16.9091 2.21071 17.4178 2.58579 17.7929C2.96086 18.1679 3.46957 18.3787 4 18.3787H16C16.5304 18.3787 17.0391 18.1679 17.4142 17.7929C17.7893 17.4178 18 16.9091 18 16.3787V4.37866C18 3.84823 17.7893 3.33952 17.4142 2.96445C17.0391 2.58938 16.5304 2.37866 16 2.37866H4ZM4 0.378662H16C17.0609 0.378662 18.0783 0.80009 18.8284 1.55024C19.5786 2.30038 20 3.3178 20 4.37866V16.3787C20 17.4395 19.5786 18.4569 18.8284 19.2071C18.0783 19.9572 17.0609 20.3787 16 20.3787H4C2.93913 20.3787 1.92172 19.9572 1.17157 19.2071C0.421427 18.4569 0 17.4395 0 16.3787V4.37866C0 3.3178 0.421427 2.30038 1.17157 1.55024C1.92172 0.80009 2.93913 0.378662 4 0.378662V0.378662Z" fill="#F3C653"/>
</svg>
