<svg width="24" height="25" viewBox="0 0 24 25" fill="none" xmlns="http://www.w3.org/2000/svg">
<path d="M15.75 2.37866C16.3467 2.37866 16.919 2.61571 17.341 3.03767C17.7629 3.45963 18 4.03192 18 4.62866V20.1287C18 20.7254 17.7629 21.2977 17.341 21.7197C16.919 22.1416 16.3467 22.3787 15.75 22.3787H8.25C7.65326 22.3787 7.08097 22.1416 6.65901 21.7197C6.23705 21.2977 6 20.7254 6 20.1287V4.62866C6 4.03192 6.23705 3.45963 6.65901 3.03767C7.08097 2.61571 7.65326 2.37866 8.25 2.37866H15.75ZM15.75 3.87866H8.25C8.05109 3.87866 7.86032 3.95768 7.71967 4.09833C7.57902 4.23898 7.5 4.42975 7.5 4.62866V20.1287C7.5 20.5427 7.836 20.8787 8.25 20.8787H15.75C15.9489 20.8787 16.1397 20.7996 16.2803 20.659C16.421 20.5183 16.5 20.3276 16.5 20.1287V4.62866C16.5 4.42975 16.421 4.23898 16.2803 4.09833C16.1397 3.95768 15.9489 3.87866 15.75 3.87866ZM13.249 17.8787C13.4479 17.8784 13.6388 17.9572 13.7796 18.0976C13.9205 18.2381 13.9997 18.4288 14 18.6277C14.0003 18.8266 13.9215 19.0174 13.781 19.1583C13.6406 19.2991 13.4499 19.3784 13.251 19.3787L10.751 19.3827C10.5521 19.3829 10.3612 19.3042 10.2204 19.1637C10.0795 19.0232 10.0003 18.8326 10 18.6337C9.99973 18.4347 10.0785 18.2439 10.219 18.103C10.3594 17.9622 10.5501 17.8829 10.749 17.8827L13.249 17.8787Z" fill="#F3C653"/>
</svg>
