<svg width="22" height="23" viewBox="0 0 22 23" fill="none" xmlns="http://www.w3.org/2000/svg">
<path fill-rule="evenodd" clip-rule="evenodd" d="M6.465 0.444662C7.638 0.390662 8.012 0.378662 11 0.378662C13.988 0.378662 14.362 0.391662 15.534 0.444662C16.706 0.497662 17.506 0.684662 18.206 0.955662C18.939 1.23266 19.604 1.66566 20.154 2.22566C20.714 2.77466 21.146 3.43866 21.422 4.17266C21.694 4.87266 21.88 5.67266 21.934 6.84266C21.988 8.01766 22 8.39166 22 11.3787C22 14.3667 21.987 14.7407 21.934 15.9137C21.881 17.0837 21.694 17.8837 21.422 18.5837C21.146 19.3178 20.7133 19.9829 20.154 20.5327C19.604 21.0927 18.939 21.5247 18.206 21.8007C17.506 22.0727 16.706 22.2587 15.536 22.3127C14.362 22.3667 13.988 22.3787 11 22.3787C8.012 22.3787 7.638 22.3657 6.465 22.3127C5.295 22.2597 4.495 22.0727 3.795 21.8007C3.06092 21.5246 2.39582 21.0919 1.846 20.5327C1.28638 19.9833 0.853315 19.3185 0.577 18.5847C0.306 17.8847 0.12 17.0847 0.066 15.9147C0.012 14.7397 0 14.3657 0 11.3787C0 8.39066 0.013 8.01666 0.066 6.84466C0.119 5.67266 0.306 4.87266 0.577 4.17266C0.853723 3.43874 1.28712 2.77398 1.847 2.22466C2.39604 1.66516 3.06047 1.23211 3.794 0.955662C4.494 0.684662 5.294 0.498662 6.464 0.444662H6.465ZM15.445 2.42466C14.285 2.37166 13.937 2.36066 11 2.36066C8.063 2.36066 7.715 2.37166 6.555 2.42466C5.482 2.47366 4.9 2.65266 4.512 2.80366C3.999 3.00366 3.632 3.24066 3.247 3.62566C2.88205 3.98071 2.60118 4.41294 2.425 4.89066C2.274 5.27866 2.095 5.86066 2.046 6.93366C1.993 8.09366 1.982 8.44166 1.982 11.3787C1.982 14.3157 1.993 14.6637 2.046 15.8237C2.095 16.8967 2.274 17.4787 2.425 17.8667C2.601 18.3437 2.882 18.7767 3.247 19.1317C3.602 19.4967 4.035 19.7777 4.512 19.9537C4.9 20.1047 5.482 20.2837 6.555 20.3327C7.715 20.3857 8.062 20.3967 11 20.3967C13.938 20.3967 14.285 20.3857 15.445 20.3327C16.518 20.2837 17.1 20.1047 17.488 19.9537C18.001 19.7537 18.368 19.5167 18.753 19.1317C19.118 18.7767 19.399 18.3437 19.575 17.8667C19.726 17.4787 19.905 16.8967 19.954 15.8237C20.007 14.6637 20.018 14.3157 20.018 11.3787C20.018 8.44166 20.007 8.09366 19.954 6.93366C19.905 5.86066 19.726 5.27866 19.575 4.89066C19.375 4.37766 19.138 4.01066 18.753 3.62566C18.3979 3.26073 17.9657 2.97987 17.488 2.80366C17.1 2.65266 16.518 2.47366 15.445 2.42466ZM9.595 14.7697C10.3797 15.0963 11.2534 15.1404 12.0669 14.8944C12.8805 14.6484 13.5834 14.1276 14.0556 13.4209C14.5278 12.7142 14.7401 11.8655 14.656 11.0198C14.572 10.174 14.197 9.38363 13.595 8.78366C13.2112 8.40014 12.7472 8.10647 12.2363 7.92381C11.7255 7.74114 11.1804 7.67402 10.6405 7.72728C10.1006 7.78053 9.57915 7.95284 9.1138 8.23179C8.64845 8.51075 8.25074 8.88941 7.9493 9.34051C7.64786 9.79162 7.45019 10.304 7.37052 10.8406C7.29084 11.3773 7.33115 11.925 7.48854 12.4442C7.64593 12.9634 7.91648 13.4413 8.28072 13.8434C8.64496 14.2455 9.09382 14.5618 9.595 14.7697ZM7.002 7.38066C7.52702 6.85564 8.15032 6.43917 8.8363 6.15502C9.52228 5.87088 10.2575 5.72464 11 5.72464C11.7425 5.72464 12.4777 5.87088 13.1637 6.15502C13.8497 6.43916 14.473 6.85564 14.998 7.38066C15.523 7.90569 15.9395 8.52898 16.2236 9.21496C16.5078 9.90094 16.654 10.6362 16.654 11.3787C16.654 12.1212 16.5078 12.8564 16.2236 13.5424C15.9395 14.2283 15.523 14.8516 14.998 15.3767C13.9377 16.437 12.4995 17.0327 11 17.0327C9.50046 17.0327 8.06234 16.437 7.002 15.3767C5.94166 14.3163 5.34597 12.8782 5.34597 11.3787C5.34597 9.87912 5.94166 8.441 7.002 7.38066ZM17.908 6.56666C18.0381 6.44393 18.1423 6.29634 18.2143 6.13264C18.2863 5.96893 18.3248 5.79243 18.3274 5.61359C18.33 5.43475 18.2967 5.25721 18.2295 5.09147C18.1622 4.92573 18.0624 4.77517 17.936 4.6487C17.8095 4.52223 17.6589 4.42242 17.4932 4.35518C17.3275 4.28794 17.1499 4.25464 16.9711 4.25725C16.7922 4.25985 16.6157 4.29832 16.452 4.37036C16.2883 4.4424 16.1407 4.54656 16.018 4.67666C15.7793 4.92969 15.6486 5.26578 15.6537 5.61359C15.6588 5.9614 15.7992 6.29354 16.0452 6.53951C16.2911 6.78547 16.6233 6.92589 16.9711 6.93096C17.3189 6.93603 17.655 6.80535 17.908 6.56666Z" fill="#F3C653"/>
</svg>
