<svg width="20" height="18" viewBox="0 0 20 18" fill="none" xmlns="http://www.w3.org/2000/svg">
<path d="M18.5527 0.375572C18.3119 0.393089 18.0756 0.449574 17.853 0.542822H17.85C17.6362 0.627572 16.62 1.05507 15.075 1.70307L9.53846 4.03482C5.56571 5.70732 1.66046 7.35432 1.66046 7.35432L1.70696 7.33632C1.70696 7.33632 1.43771 7.42482 1.15646 7.61757C0.982707 7.72814 0.833191 7.87281 0.716961 8.04282C0.578961 8.24532 0.467961 8.55507 0.509211 8.87532C0.576711 9.41682 0.927711 9.74157 1.17971 9.92082C1.43471 10.1023 1.67771 10.1871 1.67771 10.1871H1.68371L5.34596 11.4208C5.51021 11.9481 6.46196 15.0771 6.69071 15.7978C6.82571 16.2283 6.95696 16.4976 7.12121 16.7031C7.20071 16.8081 7.29371 16.8958 7.40546 16.9663C7.46356 17.0001 7.5255 17.0268 7.58996 17.0458L7.55246 17.0368C7.56371 17.0398 7.57271 17.0488 7.58096 17.0518C7.61096 17.0601 7.63121 17.0631 7.66946 17.0691C8.24921 17.2446 8.71496 16.8846 8.71496 16.8846L8.74121 16.8636L10.9035 14.8948L14.5275 17.6751L14.61 17.7103C15.3652 18.0418 16.1302 17.8573 16.5345 17.5318C16.9417 17.2041 17.1 16.7848 17.1 16.7848L17.1262 16.7173L19.9267 2.37057C20.0062 2.01657 20.0265 1.68507 19.9387 1.36332C19.8482 1.03769 19.6393 0.757628 19.353 0.578072C19.1125 0.431908 18.8337 0.361359 18.5527 0.375572ZM18.477 1.91307C18.474 1.96032 18.483 1.95507 18.462 2.04582V2.05407L15.6877 16.2516C15.6757 16.2718 15.6555 16.3161 15.6 16.3603C15.5415 16.4068 15.495 16.4361 15.2512 16.3393L10.8187 12.9411L8.14121 15.3816L8.70371 11.7891L15.9457 5.03907C16.2442 4.76157 16.1445 4.70307 16.1445 4.70307C16.1655 4.36257 15.6937 4.60332 15.6937 4.60332L6.56171 10.2606L6.55871 10.2456L2.18171 8.77182V8.76882L2.17046 8.76657C2.17813 8.76402 2.18565 8.76102 2.19296 8.75757L2.21696 8.74557L2.24021 8.73732C2.24021 8.73732 6.14846 7.09032 10.1212 5.41782C12.1102 4.58007 14.1142 3.73632 15.6555 3.08532C16.5695 2.70057 17.4845 2.31807 18.4005 1.93782C18.462 1.91382 18.4327 1.91382 18.477 1.91382V1.91307Z" fill="#F3C653"/>
</svg>
